<svg height="511pt" viewBox="0 -15 511.99977 511" width="511pt" xmlns="http://www.w3.org/2000/svg"><path d="m10.453125 209.460938 21.234375 103.578124 58.898438-11.453124-20.035157-97.386719 29.449219-5.722657 9.273438 42.023438c23.296874.363281 45.4375 7.367188 64.851562 19.179688l-18.605469-90.03125c-9.714843-49.964844-75.589843-63.183594-104.027343-21.035157zm0 0"/><path d="m109.414062 89.679688c24.359376-4.734376 40.320313-28.402344 35.585938-52.761719s-28.398438-40.320313-52.757812-35.585938c-24.359376 4.734375-40.324219 28.402344-35.585938 52.761719 4.730469 24.355469 28.398438 40.320312 52.757812 35.585938zm0 0"/><path d="m1.824219 395.246094c11.066406 56.925781 66.183593 94.101562 123.105469 83.035156 56.925781-11.066406 94.101562-66.179688 83.035156-123.105469-9.058594-46.617187-47.777344-79.492187-92.722656-83.972656l10.515624 54.109375-122.21875 23.757812c-3.800781 14.679688-4.800781 30.296876-1.714843 46.175782zm0 0"/><path d="m303.226562 260.257812-102.871093 19.996094c15.054687 15.027344 26.429687 33.605469 33.011719 54.703125l38.863281-7.550781 49.394531 88.007812-130.171875 65.085938h320.546875v-159.269531l-136.660156 67.328125zm0 0"/></svg>