<svg xmlns="http://www.w3.org/2000/svg" height="512pt" version="1.1" viewBox="0 0 512 512" width="512pt">
<g id="surface1">
<path d="M 512 15 C 512 6.714844 505.285156 0 497 0 L 15 0 C 6.714844 0 0 6.714844 0 15 L 0 497 C 0 505.285156 6.714844 512 15 512 L 497 512 C 505.285156 512 512 505.285156 512 497 Z M 302 150 L 302 482 L 211 482 L 211 150 Z M 181 482 L 90 482 L 90 150 L 181 150 Z M 482 482 L 332 482 L 332 135 C 332 126.714844 325.285156 120 317 120 L 75 120 C 66.714844 120 60 126.714844 60 135 L 60 482 L 30 482 L 30 30 L 482 30 Z M 482 482 " style=" stroke:none;fill-rule:nonzero;fill:rgb(0%,0%,0%);fill-opacity:1;" />
<path d="M 120 75 C 120 83.285156 113.285156 90 105 90 C 96.714844 90 90 83.285156 90 75 C 90 66.714844 96.714844 60 105 60 C 113.285156 60 120 66.714844 120 75 Z M 120 75 " style=" stroke:none;fill-rule:nonzero;fill:rgb(0%,0%,0%);fill-opacity:1;" />
<path d="M 181 75 C 181 83.285156 174.285156 90 166 90 C 157.714844 90 151 83.285156 151 75 C 151 66.714844 157.714844 60 166 60 C 174.285156 60 181 66.714844 181 75 Z M 181 75 " style=" stroke:none;fill-rule:nonzero;fill:rgb(0%,0%,0%);fill-opacity:1;" />
<path d="M 241 75 C 241 83.285156 234.285156 90 226 90 C 217.714844 90 211 83.285156 211 75 C 211 66.714844 217.714844 60 226 60 C 234.285156 60 241 66.714844 241 75 Z M 241 75 " style=" stroke:none;fill-rule:nonzero;fill:rgb(0%,0%,0%);fill-opacity:1;" />
<path d="M 301 75 C 301 83.285156 294.285156 90 286 90 C 277.714844 90 271 83.285156 271 75 C 271 66.714844 277.714844 60 286 60 C 294.285156 60 301 66.714844 301 75 Z M 301 75 " style=" stroke:none;fill-rule:nonzero;fill:rgb(0%,0%,0%);fill-opacity:1;" />
<path d="M 377 360 L 437 360 C 445.285156 360 452 353.285156 452 345 L 452 225 C 452 216.714844 445.285156 210 437 210 L 377 210 C 368.714844 210 362 216.714844 362 225 L 362 345 C 362 353.285156 368.714844 360 377 360 Z M 392 330 L 392 300 L 422 300 L 422 330 Z M 422 240 L 422 270 L 392 270 L 392 240 Z M 422 240 " style=" stroke:none;fill-rule:nonzero;fill:rgb(0%,0%,0%);fill-opacity:1;" />
</g>
</svg>