<?xml version="1.0" encoding="iso-8859-1"?>
<!-- Generator: Adobe Illustrator 19.0.0, SVG Export Plug-In . SVG Version: 6.00 Build 0)  -->
<svg version="1.1" id="Capa_1" xmlns="http://www.w3.org/2000/svg" xmlns:xlink="http://www.w3.org/1999/xlink" x="0px" y="0px"
	 viewBox="0 0 480 480" style="enable-background:new 0 0 480 480;" xml:space="preserve">
<g>
	<g>
		<rect x="136" y="184" width="16" height="104"/>
	</g>
</g>
<g>
	<g>
		<rect x="328" y="192" width="16" height="104"/>
	</g>
</g>
<g>
	<g>
		<path d="M479.44,5.208c-0.064-0.176-0.12-0.344-0.2-0.52c-0.368-0.808-0.864-1.552-1.48-2.2c-0.12-0.128-0.256-0.224-0.384-0.336
			c-0.272-0.248-0.52-0.52-0.832-0.736c-0.368-0.256-0.776-0.432-1.176-0.616c-0.128-0.056-0.232-0.136-0.36-0.192
			c-0.88-0.36-1.8-0.52-2.744-0.552C472.168,0.048,472.096,0,472,0H8C7.904,0,7.816,0.056,7.72,0.056
			C6.792,0.088,5.872,0.256,5,0.608C4.872,0.656,4.76,0.736,4.632,0.8c-0.4,0.184-0.8,0.36-1.168,0.616
			c-0.312,0.216-0.56,0.488-0.832,0.736C2.496,2.272,2.36,2.368,2.24,2.488c-0.616,0.656-1.112,1.392-1.48,2.2
			c-0.08,0.176-0.128,0.344-0.2,0.52C0.232,6.096,0,7.024,0,8v464c0,0.976,0.232,1.904,0.56,2.792c0.072,0.176,0.12,0.344,0.2,0.52
			c0.368,0.808,0.864,1.552,1.48,2.2c0.12,0.128,0.256,0.224,0.384,0.344c0.272,0.248,0.52,0.52,0.832,0.736
			c0.288,0.2,0.624,0.296,0.928,0.456c0.272,0.144,0.528,0.288,0.824,0.4C6.112,479.776,7.048,480,8,480h464
			c0.952,0,1.888-0.224,2.784-0.56c0.296-0.112,0.544-0.256,0.824-0.4c0.312-0.16,0.64-0.256,0.928-0.456
			c0.312-0.216,0.56-0.488,0.832-0.736c0.128-0.12,0.264-0.216,0.384-0.344c0.624-0.648,1.112-1.392,1.48-2.2
			c0.08-0.168,0.128-0.344,0.2-0.52c0.336-0.88,0.568-1.808,0.568-2.784V8C480,7.024,479.768,6.096,479.44,5.208z M16,19.608
			l152,57.904v324.976L16,460.392V19.608z M51.472,464l127.376-48.52c3.104-1.184,5.152-4.16,5.152-7.48V72
			c0-3.32-2.048-6.296-5.152-7.48L51.472,16h377.056L301.152,64.52C298.048,65.704,296,68.68,296,72v336
			c0,3.32,2.048,6.296,5.152,7.48L428.528,464H51.472z M464,460.392l-152-57.904V77.512l152-57.904V460.392z"/>
	</g>
</g>
<g>
	<g>
		<path d="M240,200c-22.056,0-40,17.944-40,40c0,12.504,6.032,24.328,16,31.832V288v32c0,4.416,3.584,8,8,8h8v8h16v-8h8
			c4.416,0,8-3.584,8-8v-32v-16.168c9.968-7.512,16-19.328,16-31.832C280,217.944,262.056,200,240,200z M248,312h-16v-16h16V312z
			 M251.976,260.648c-2.464,1.432-3.976,4.064-3.976,6.912V280h-16v-12.44c0-2.848-1.512-5.48-3.976-6.912
			C220.496,256.264,216,248.544,216,240c0-13.232,10.768-24,24-24s24,10.768,24,24C264,248.544,259.504,256.264,251.976,260.648z"/>
	</g>
</g>
<g>
	<g>
		<rect x="232" y="168" width="16" height="16"/>
	</g>
</g>
<g>
	<g>
		<rect x="274.323" y="184.015" transform="matrix(0.7071 -0.7071 0.7071 0.7071 -53.0844 255.8722)" width="16" height="16"/>
	</g>
</g>
<g>
	<g>
		<rect x="191.994" y="183.999" transform="matrix(0.7071 -0.7071 0.7071 0.7071 -77.1869 197.6526)" width="16" height="16"/>
	</g>
</g>
<g>
</g>
<g>
</g>
<g>
</g>
<g>
</g>
<g>
</g>
<g>
</g>
<g>
</g>
<g>
</g>
<g>
</g>
<g>
</g>
<g>
</g>
<g>
</g>
<g>
</g>
<g>
</g>
<g>
</g>
</svg>
